<svg width="576" height="576" viewBox="0 0 576 576" fill="none" xmlns="http://www.w3.org/2000/svg">
<g clip-path="url(#clip0_1_2)">
<rect width="576" height="576" rx="101" fill="url(#paint0_linear_1_2)"/>
<path d="M124.5 405.5H98.5C97.8908 378.188 89.2798 366.171 69.5 346.5C105.192 347.744 121.672 353.856 124.5 405.5Z" fill="#1B8E78"/>
<path d="M152 396.5H124.5C124.333 381.828 123.714 373.27 111.5 351C104.51 314.932 100.422 303.683 93 290.5C137.512 316.71 146.571 342.648 152 396.5Z" fill="#1B8E78"/>
<path d="M179 395L151.5 396.5C140.988 342.113 144.395 319.203 166 291L163 325C175.235 312.705 182.247 308.757 195 306.5C174.054 332.51 171.883 352.662 179 395Z" fill="#1B8E78"/>
<path d="M179.5 407H208.5C211.345 369.783 217.058 352.946 235 330.5C197.688 338.125 181.79 351.694 179.5 407Z" fill="#1B8E78"/>
<path d="M153 471H111C104.5 471 98 466.5 98 459V405H119C119 389 141 376 153 376V471Z" fill="#EB9251"/>
<path d="M153 471H195C201.5 471 208 466.5 208 459V405H187C187 389 165 376 153 376V471Z" fill="#864627"/>
<path d="M137 254C138 260 141.889 262 147 262C152.111 262 156 260 157 254V166H183C187.024 164.974 189.206 163.163 190 158V101C189 93 175 93 174 101V147H154V101C153 93 141 93 140 101V147H120V101C119 93 105 93 104 101V158C104.794 163.163 106.976 164.974 111 166H137C137 166 136 248 137 254Z" fill="#80604E"/>
<path d="M222 227C224.103 147.505 240.596 111.68 285 62C329.404 111.68 345.897 147.505 348 227C348 235 340 243 332 244L313 248C309 249 303 255.5 302.5 259.5V475C302 481 293 489 285 489C277 489 268 481 267.5 475V259.5C267 255.5 261 249 257 248L238 244C230 243 222 235 222 227Z" fill="url(#paint1_linear_1_2)"/>
<path d="M414 388H424H434V338L445 327H473.5C499 326 520 295 514 277C509 266 503 261 495 261H473C452 263 439 286 437 304L434 305V244C447 243 463 230 463 221V199H447C442 199.5 437 202 434 206V171C448 165 462 156.5 462 148V124H447C438 124 426 130 424 139C422 130 410 124 401 124H386V148C386 156.5 400 165 414 171V206C411 202 406 199.5 401 199H385V221C385 230 401 243 414 244V305L411 304C409 286 396 263 375 261H353C345 261 339 266 334 277C328 295 349 326 374.5 327H403L414 338V388Z" fill="url(#paint2_linear_1_2)"/>
<path d="M396 471H424H452C461 471 470 462 470 453V416H499C508 415 510 406 510 401C510 396 508 387 499 386H424H349C340 387 338 396 338 401C338 406 340 415 349 416H378V453C378 462 387 471 396 471Z" fill="url(#paint3_linear_1_2)"/>
</g>
<defs>
<linearGradient id="paint0_linear_1_2" x1="0" y1="0" x2="576" y2="576" gradientUnits="userSpaceOnUse">
<stop offset="0.497096" stop-color="#FAF2EC"/>
<stop offset="0.50022" stop-color="#F4EFE5"/>
</linearGradient>
<linearGradient id="paint1_linear_1_2" x1="348" y1="229" x2="222" y2="229" gradientUnits="userSpaceOnUse">
<stop offset="0.562748" stop-color="#332D36"/>
<stop offset="0.565229" stop-color="#513B39"/>
</linearGradient>
<linearGradient id="paint2_linear_1_2" x1="333" y1="281" x2="505" y2="281" gradientUnits="userSpaceOnUse">
<stop offset="0.530766" stop-color="#0F947A"/>
<stop offset="0.53125" stop-color="#117F6D"/>
</linearGradient>
<linearGradient id="paint3_linear_1_2" x1="338" y1="401" x2="510" y2="401" gradientUnits="userSpaceOnUse">
<stop offset="0.500848" stop-color="#4E3936"/>
<stop offset="0.502907" stop-color="#332D35"/>
</linearGradient>
<clipPath id="clip0_1_2">
<rect width="576" height="576" fill="white"/>
</clipPath>
</defs>
</svg>
